<svg style="height: 512px; width: 512px;" xmlns="http://www.w3.org/2000/svg" viewBox="0 0 512 512"><defs><filter id="shadow-1" height="300%" width="300%" x="-100%" y="-100%"><feFlood flood-color="rgba(255, 255, 255, 1)" result="flood"></feFlood><feComposite in="flood" in2="SourceGraphic" operator="atop" result="composite"></feComposite><feGaussianBlur in="composite" stdDeviation="15" result="blur"></feGaussianBlur><feOffset dx="0" dy="0" result="offset"></feOffset><feComposite in="SourceGraphic" in2="offset" operator="over"></feComposite></filter><filter id="shadow-2" height="300%" width="300%" x="-100%" y="-100%"><feFlood flood-color="rgba(0, 0, 0, 1)" result="flood"></feFlood><feComposite in="flood" in2="SourceGraphic" operator="atop" result="composite"></feComposite><feGaussianBlur in="composite" stdDeviation="10" result="blur"></feGaussianBlur><feOffset dx="0" dy="0" result="offset"></feOffset><feComposite in="SourceGraphic" in2="offset" operator="over"></feComposite></filter><filter id="shadow-3" height="300%" width="300%" x="-100%" y="-100%"><feFlood flood-color="rgba(0, 0, 0, 1)" result="flood"></feFlood><feComposite in="flood" in2="SourceGraphic" operator="atop" result="composite"></feComposite><feGaussianBlur in="composite" stdDeviation="10" result="blur"></feGaussianBlur><feOffset dx="0" dy="0" result="offset"></feOffset><feComposite in="SourceGraphic" in2="offset" operator="over"></feComposite></filter><radialGradient id="gradient-0"><stop offset="0%" stop-color="#00faff" stop-opacity="1"></stop><stop offset="100%" stop-color="#042f2e" stop-opacity="1"></stop></radialGradient><radialGradient id="gradient-1"><stop offset="0%" stop-color="#000000" stop-opacity="1"></stop><stop offset="100%" stop-color="#000000" stop-opacity="1"></stop></radialGradient><radialGradient id="gradient-4"><stop offset="0%" stop-color="#ffffff" stop-opacity="1"></stop><stop offset="100%" stop-color="#417505" stop-opacity="1"></stop></radialGradient><radialGradient id="gradient-5"><stop offset="0%" stop-color="#efbd6d" stop-opacity="1"></stop><stop offset="100%" stop-color="#417505" stop-opacity="1"></stop></radialGradient><radialGradient id="gradient-6"><stop offset="0%" stop-color="#efbd6d" stop-opacity="1"></stop><stop offset="100%" stop-color="#417505" stop-opacity="1"></stop></radialGradient><radialGradient id="gradient-7"><stop offset="0%" stop-color="#efbd6d" stop-opacity="1"></stop><stop offset="100%" stop-color="#417505" stop-opacity="1"></stop></radialGradient><radialGradient id="gradient-8"><stop offset="0%" stop-color="#efbd6d" stop-opacity="1"></stop><stop offset="100%" stop-color="#417505" stop-opacity="1"></stop></radialGradient><radialGradient id="gradient-9"><stop offset="0%" stop-color="#efbd6d" stop-opacity="1"></stop><stop offset="100%" stop-color="#417505" stop-opacity="1"></stop></radialGradient><radialGradient id="gradient-10"><stop offset="0%" stop-color="#efbd6d" stop-opacity="1"></stop><stop offset="100%" stop-color="#417505" stop-opacity="1"></stop></radialGradient><radialGradient id="gradient-11"><stop offset="0%" stop-color="#efbd6d" stop-opacity="1"></stop><stop offset="100%" stop-color="#417505" stop-opacity="1"></stop></radialGradient><radialGradient id="gradient-12"><stop offset="0%" stop-color="#efbd6d" stop-opacity="1"></stop><stop offset="100%" stop-color="#417505" stop-opacity="1"></stop></radialGradient><radialGradient id="gradient-13"><stop offset="0%" stop-color="#efbd6d" stop-opacity="1"></stop><stop offset="100%" stop-color="#417505" stop-opacity="1"></stop></radialGradient><radialGradient id="gradient-14"><stop offset="0%" stop-color="#efbd6d" stop-opacity="1"></stop><stop offset="100%" stop-color="#417505" stop-opacity="1"></stop></radialGradient><radialGradient id="gradient-15"><stop offset="0%" stop-color="#efbd6d" stop-opacity="1"></stop><stop offset="100%" stop-color="#417505" stop-opacity="1"></stop></radialGradient><radialGradient id="gradient-16"><stop offset="0%" stop-color="#efbd6d" stop-opacity="1"></stop><stop offset="100%" stop-color="#417505" stop-opacity="1"></stop></radialGradient><radialGradient id="gradient-17"><stop offset="0%" stop-color="#efbd6d" stop-opacity="1"></stop><stop offset="100%" stop-color="#417505" stop-opacity="1"></stop></radialGradient><radialGradient id="gradient-18"><stop offset="0%" stop-color="#efbd6d" stop-opacity="1"></stop><stop offset="100%" stop-color="#d0021b" stop-opacity="1"></stop></radialGradient></defs><circle cx="256" cy="256" r="256" fill="url(#gradient-0)"></circle><g class="" style="touch-action: none;" transform="translate(-1,0)"><path d="M27.084 18.248C-17.903 146.478 143.15 277.92 314.496 381.074c-4.645 13.767-5.585 27.628-3.394 40.635 4.44 26.355 20.974 48.997 42.86 62.425 21.884 13.428 49.776 17.57 75.645 5.765 25.87-11.804 48.69-38.923 62.737-84.654l-17.865-5.488c-13 42.318-32.806 64.094-52.63 73.14-19.825 9.047-40.69 5.998-58.116-4.693-17.425-10.69-30.75-29.095-34.205-49.6-3.455-20.507 2.232-43.318 24.677-65.218 20.743-20.24 32.068-41.615 30.434-61.24l-18.622 1.552c.74 8.89-4.35 22.76-16.684 37.486C222.057 230.8 73.838 128.622 27.084 18.248zm458.05 0C451.34 98.03 364.527 173.53 270.93 247.166c19.492 15.878 39.56 31.622 59.195 45.012 110.756-84.836 187.878-180.243 155.01-273.93zM127.58 292.146c-1.634 19.626 9.69 41 30.434 61.24 22.445 21.9 28.132 44.712 24.677 65.218-3.455 20.506-16.78 38.91-34.206 49.6-17.425 10.692-38.29 13.74-58.115 4.694-19.825-9.046-39.632-30.822-52.63-73.14l-17.865 5.488c14.046 45.73 36.867 72.85 62.736 84.654 25.87 11.805 53.763 7.663 75.648-5.765 21.885-13.428 38.42-36.07 42.86-62.426 2.19-13.005 1.25-26.863-3.393-40.628 13.986-8.42 27.905-17.022 41.648-25.803l-56.967-39.387c-6.55 5.103-13.063 10.2-19.52 15.293C150.55 316.46 145.46 302.59 146.2 293.7l-18.622-1.554zm18.1 73.614c-26.1 8.6-62.087 36.255-77.104 60.324 4.948 8.63 10.393 15.223 16.05 20.14 25.846-8.953 59.85-37.406 74.733-60.257-3.007-6.6-7.454-13.386-13.68-20.207zm220.863 0c-6.225 6.822-10.67 13.61-13.68 20.21 14.886 22.85 48.89 51.3 74.736 60.255 5.656-4.918 11.1-11.51 16.05-20.14-15.018-24.07-51.004-51.724-77.105-60.325z" fill="url(#gradient-1)" transform="translate(51.2, 51.2) scale(0.8, 0.8) rotate(0, 256, 256)" filter="url(#shadow-1)"></path></g></svg>